<svg id="Layer_1" data-name="Layer 1" xmlns="http://www.w3.org/2000/svg" viewBox="0 0 288 288"><defs><style>.cls-1{fill:#65d46e;stroke:#fff;stroke-miterlimit:10;stroke-width:8px;}.cls-2{fill:#83ed83;}</style></defs><path class="cls-1" d="M246.3,159.42A119.27,119.27,0,1,1,127,40.16V159.42Z"/><path class="cls-1" d="M158.75,9.31V127.58H280.24C280.24,62.21,225.9,9.31,158.75,9.31Z"/><path class="cls-2" d="M171,21.74V35.35c6.31.3,34.24,4.3,54.28,22.88,21.65,20.09,28.06,50.77,28.52,56.61h12.74c-1.36-9.43-7.55-37.38-28-59.57C214.39,29.13,179.78,23,171,21.74Z"/><path class="cls-2" d="M216,173A89.57,89.57,0,0,1,37.76,160.42c0-43.28,32.19-86,75.57-88l.39-17.78c-55.18,8.13-92.45,52-92.45,105.07a106.06,106.06,0,0,0,211.27,13.44Z"/></svg>